<?xml version="1.0" standalone="no"?>
<!DOCTYPE svg PUBLIC "-//W3C//DTD SVG 20010904//EN"
 "http://www.w3.org/TR/2001/REC-SVG-20010904/DTD/svg10.dtd">
<svg version="1.0" xmlns="http://www.w3.org/2000/svg"
 width="512.000000pt" height="512.000000pt" viewBox="0 0 512.000000 512.000000"
 preserveAspectRatio="xMidYMid meet">
<metadata>
Created by potrace 1.14, written by Peter Selinger 2001-2017
</metadata>
<g transform="translate(0.000000,512.000000) scale(0.100000,-0.100000)"
fill="#000000" stroke="none">
<path d="M2270 4735 c-396 -54 -802 -233 -1105 -486 -430 -360 -707 -859 -781
-1409 -16 -123 -18 -410 -4 -530 51 -416 228 -830 491 -1145 366 -437 876
-715 1439 -785 108 -13 391 -13 500 0 404 49 801 214 1113 463 451 359 735
862 813 1437 18 139 18 420 -1 565 -131 996 -920 1773 -1925 1895 -115 14
-423 11 -540 -5z m314 -1065 c171 -17 325 -67 461 -149 l65 -40 0 70 0 69 233
-2 232 -3 0 -1055 0 -1055 -232 -3 -233 -2 0 65 c0 36 -2 65 -4 65 -2 0 -33
-17 -67 -38 -283 -171 -668 -193 -988 -58 -240 101 -481 343 -581 583 -151
361 -103 792 120 1093 112 152 315 313 478 381 96 40 211 68 314 78 46 5 88 9
93 9 6 1 54 -3 109 -8z"/>
<path d="M2410 3250 c-265 -31 -466 -234 -526 -529 -23 -116 -15 -307 16 -406
40 -125 86 -204 169 -286 120 -120 250 -173 426 -172 285 1 523 199 592 490
27 116 25 322 -5 426 -70 244 -238 419 -447 465 -74 16 -152 20 -225 12z"/>
</g>
</svg>
